<svg id="visual" viewBox="0 0 1920 1080" width="1920" height="1080" xmlns="http://www.w3.org/2000/svg" xmlns:xlink="http://www.w3.org/1999/xlink" version="1.1"><rect x="0" y="0" width="1920" height="1080" fill="#222"></rect><path d="M0 837L64 846C128 855 256 873 384 866.2C512 859.3 640 827.7 768 830.7C896 833.7 1024 871.3 1152 871.5C1280 871.7 1408 834.3 1536 814.5C1664 794.7 1792 792.3 1856 791.2L1920 790L1920 1081L1856 1081C1792 1081 1664 1081 1536 1081C1408 1081 1280 1081 1152 1081C1024 1081 896 1081 768 1081C640 1081 512 1081 384 1081C256 1081 128 1081 64 1081L0 1081Z" fill="#222222"></path><path d="M0 891L64 891.8C128 892.7 256 894.3 384 886.3C512 878.3 640 860.7 768 868.7C896 876.7 1024 910.3 1152 918C1280 925.7 1408 907.3 1536 892C1664 876.7 1792 864.3 1856 858.2L1920 852L1920 1081L1856 1081C1792 1081 1664 1081 1536 1081C1408 1081 1280 1081 1152 1081C1024 1081 896 1081 768 1081C640 1081 512 1081 384 1081C256 1081 128 1081 64 1081L0 1081Z" fill="#1e1e1e"></path><path d="M0 968L64 969.5C128 971 256 974 384 965.3C512 956.7 640 936.3 768 929.2C896 922 1024 928 1152 923.7C1280 919.3 1408 904.7 1536 913.3C1664 922 1792 954 1856 970L1920 986L1920 1081L1856 1081C1792 1081 1664 1081 1536 1081C1408 1081 1280 1081 1152 1081C1024 1081 896 1081 768 1081C640 1081 512 1081 384 1081C256 1081 128 1081 64 1081L0 1081Z" fill="#1b1b1b"></path><path d="M0 959L64 965.8C128 972.7 256 986.3 384 989.2C512 992 640 984 768 977.5C896 971 1024 966 1152 972.7C1280 979.3 1408 997.7 1536 1006.5C1664 1015.3 1792 1014.7 1856 1014.3L1920 1014L1920 1081L1856 1081C1792 1081 1664 1081 1536 1081C1408 1081 1280 1081 1152 1081C1024 1081 896 1081 768 1081C640 1081 512 1081 384 1081C256 1081 128 1081 64 1081L0 1081Z" fill="#181818"></path><path d="M0 993L64 994.5C128 996 256 999 384 1007.7C512 1016.3 640 1030.7 768 1028.7C896 1026.7 1024 1008.3 1152 1005.2C1280 1002 1408 1014 1536 1019.7C1664 1025.3 1792 1024.7 1856 1024.3L1920 1024L1920 1081L1856 1081C1792 1081 1664 1081 1536 1081C1408 1081 1280 1081 1152 1081C1024 1081 896 1081 768 1081C640 1081 512 1081 384 1081C256 1081 128 1081 64 1081L0 1081Z" fill="#151515"></path></svg>