<svg id="visual" viewBox="0 0 900 600" width="900" height="600" xmlns="http://www.w3.org/2000/svg" xmlns:xlink="http://www.w3.org/1999/xlink" version="1.1"><rect x="0" y="0" width="900" height="600" fill="#151515"></rect><defs><linearGradient id="grad1_0" x1="33.3%" y1="100%" x2="100%" y2="0%"><stop offset="20%" stop-color="#222222" stop-opacity="1"></stop><stop offset="80%" stop-color="#222222" stop-opacity="1"></stop></linearGradient></defs><defs><linearGradient id="grad1_1" x1="33.3%" y1="100%" x2="100%" y2="0%"><stop offset="20%" stop-color="#222222" stop-opacity="1"></stop><stop offset="80%" stop-color="#151515" stop-opacity="1"></stop></linearGradient></defs><defs><linearGradient id="grad2_0" x1="0%" y1="100%" x2="66.7%" y2="0%"><stop offset="20%" stop-color="#222222" stop-opacity="1"></stop><stop offset="80%" stop-color="#222222" stop-opacity="1"></stop></linearGradient></defs><defs><linearGradient id="grad2_1" x1="0%" y1="100%" x2="66.7%" y2="0%"><stop offset="20%" stop-color="#151515" stop-opacity="1"></stop><stop offset="80%" stop-color="#222222" stop-opacity="1"></stop></linearGradient></defs><g transform="translate(900, 600)"><path d="M-270.4 0C-269.5 -38.4 -268.5 -76.9 -249.8 -103.5C-231.2 -130.1 -194.8 -144.9 -169 -169C-143.2 -193.1 -127.8 -226.4 -101.4 -244.8C-75 -263.3 -37.5 -266.8 0 -270.4L0 0Z" fill="#1b1b1b"></path><path d="M-135.2 0C-134.7 -19.2 -134.2 -38.4 -124.9 -51.7C-115.6 -65.1 -97.4 -72.5 -84.5 -84.5C-71.6 -96.5 -63.9 -113.2 -50.7 -122.4C-37.5 -131.6 -18.7 -133.4 0 -135.2L0 0Z" fill="#222222"></path></g><g transform="translate(0, 0)"><path d="M270.4 0C261.2 33.3 251.9 66.5 240.2 99.5C228.5 132.5 214.3 165.2 191.2 191.2C168.2 217.2 136.3 236.4 102.9 248.5C69.6 260.6 34.8 265.5 0 270.4L0 0Z" fill="#1b1b1b"></path><path d="M135.2 0C130.6 16.6 126 33.3 120.1 49.7C114.2 66.2 107.1 82.6 95.6 95.6C84.1 108.6 68.1 118.2 51.5 124.3C34.8 130.3 17.4 132.8 0 135.2L0 0Z" fill="#222222"></path></g></svg>